<svg width="17" height="17" viewBox="0 0 17 17" fill="none" xmlns="http://www.w3.org/2000/svg">
<path d="M10.1667 6.62503C9.68091 6.19814 9.04931 5.97491 8.40319 6.00176C7.75707 6.02861 7.14616 6.30348 6.6975 6.7692C6.2495 7.23403 5.99919 7.85446 5.99919 8.50003C5.99919 9.14561 6.2495 9.76604 6.6975 10.2309C7.14616 10.6966 7.75707 10.9715 8.40319 10.9983C9.04931 11.0252 9.68091 10.8019 10.1667 10.375M1 8.5C1 9.48491 1.19399 10.4602 1.5709 11.3701C1.94781 12.2801 2.50026 13.1069 3.1967 13.8033C3.89314 14.4997 4.71993 15.0522 5.62987 15.4291C6.53982 15.806 7.51509 16 8.5 16C9.48491 16 10.4602 15.806 11.3701 15.4291C12.2801 15.0522 13.1069 14.4997 13.8033 13.8033C14.4997 13.1069 15.0522 12.2801 15.4291 11.3701C15.806 10.4602 16 9.48491 16 8.5C16 7.51509 15.806 6.53982 15.4291 5.62987C15.0522 4.71993 14.4997 3.89314 13.8033 3.1967C13.1069 2.50026 12.2801 1.94781 11.3701 1.5709C10.4602 1.19399 9.48491 1 8.5 1C7.51509 1 6.53982 1.19399 5.62987 1.5709C4.71993 1.94781 3.89314 2.50026 3.1967 3.1967C2.50026 3.89314 1.94781 4.71993 1.5709 5.62987C1.19399 6.53982 1 7.51509 1 8.5Z" stroke="black" stroke-width="0.833333" stroke-linecap="round" stroke-linejoin="round"/>
</svg>
