<svg width="48" height="48" viewBox="0 0 48 48" fill="none" xmlns="http://www.w3.org/2000/svg">
<path d="M18 22V12C18 10.4087 18.6321 8.88258 19.7574 7.75736C20.8826 6.63214 22.4087 6 24 6C25.5913 6 27.1174 6.63214 28.2426 7.75736C29.3679 8.88258 30 10.4087 30 12V22M12.662 16H35.34C35.9167 15.9999 36.4866 16.1246 37.0107 16.3654C37.5347 16.6062 38.0005 16.9575 38.3761 17.3952C38.7517 17.8329 39.0281 18.3466 39.1866 18.9012C39.345 19.4557 39.3816 20.038 39.294 20.608L36.784 36.912C36.5661 38.3289 35.8481 39.6209 34.76 40.5542C33.6718 41.4875 32.2855 42.0004 30.852 42H17.148C15.7148 41.9999 14.3289 41.4868 13.2412 40.5536C12.1535 39.6203 11.4358 38.3285 11.218 36.912L8.70798 20.608C8.62031 20.038 8.65695 19.4557 8.81539 18.9012C8.97382 18.3466 9.2503 17.8329 9.62587 17.3952C10.0014 16.9575 10.4672 16.6062 10.9913 16.3654C11.5153 16.1246 12.0852 15.9999 12.662 16Z" stroke="black" stroke-width="2.5" stroke-linecap="round" stroke-linejoin="round"/>
</svg>
