<svg width="166" height="52" viewBox="0 0 166 52" fill="none" xmlns="http://www.w3.org/2000/svg">
<path fill-rule="evenodd" clip-rule="evenodd" d="M0.288039 14.4862C0.411093 14.3344 0.566997 14.2119 0.744246 14.1278C0.921495 14.0436 1.11557 14 1.31214 14H35.4488C35.6452 14.0001 35.8392 14.0438 36.0163 14.128C36.1934 14.2121 36.3492 14.3346 36.4722 14.4863C36.5951 14.638 36.6822 14.8151 36.7268 15.0045C36.7715 15.1939 36.7726 15.3909 36.7302 15.5808L36.1525 18.1574C38.1159 18.6765 39.8009 19.9265 40.8556 21.6464C41.9103 23.3663 42.2531 25.4232 41.8126 27.3874C41.372 29.3517 40.1821 31.0716 38.4913 32.1878C36.8005 33.304 34.7396 33.7304 32.7388 33.3778L32.3922 34.9118C32.0679 36.355 31.2564 37.6455 30.0915 38.5706C28.9267 39.4956 27.4782 39.9998 25.985 40H10.7759C9.28231 39.9997 7.83351 39.4951 6.66865 38.5696C5.50378 37.644 4.69248 36.3528 4.36868 34.9092L0.0307015 15.5808C-0.0114291 15.3913 -0.0101841 15.1949 0.0343451 15.0059C0.0788743 14.817 0.165558 14.6377 0.288039 14.4862ZM33.306 30.835C34.6312 31.0519 35.9899 30.7579 37.1028 30.0134C38.2158 29.2688 38.9983 28.1304 39.2895 26.8321C39.5808 25.5339 39.3585 24.1745 38.6686 23.0334C37.9786 21.8924 36.8734 21.0565 35.58 20.6976L33.306 30.835ZM2.95069 16.6L6.93155 34.345C7.12573 35.2113 7.61246 35.9861 8.31139 36.5415C9.01032 37.097 9.87966 37.3998 10.7759 37.4H25.985C26.8812 37.3998 27.7506 37.097 28.4495 36.5415C29.1484 35.9861 29.6352 35.2113 29.8293 34.345L33.8128 16.6H2.95069Z" fill="black"/>
<mask id="path-2-outside-1_66_9" maskUnits="userSpaceOnUse" x="59" y="13" width="105" height="16" fill="black">
<rect fill="white" x="59" y="13" width="105" height="16"/>
<path d="M66.24 28L61.54 15.48H61.46C61.4867 15.7467 61.5067 16.0867 61.52 16.5C61.5467 16.9133 61.5667 17.3667 61.58 17.86C61.5933 18.34 61.6 18.8333 61.6 19.34V28H59.94V13.72H62.6L67 25.42H67.08L71.56 13.72H74.2V28H72.42V19.22C72.42 18.7533 72.4267 18.2933 72.44 17.84C72.4533 17.3733 72.4733 16.94 72.5 16.54C72.5267 16.1267 72.5467 15.78 72.56 15.5H72.48L67.72 28H66.24ZM82.1045 28H76.9445V26.96L78.6245 26.58V15.16L76.9445 14.76V13.72H82.1045V14.76L80.4245 15.16V26.58L82.1045 26.96V28ZM92.9619 24.18C92.9619 25.0333 92.7552 25.76 92.3419 26.36C91.9285 26.9467 91.3352 27.4 90.5619 27.72C89.8019 28.04 88.9019 28.2 87.8619 28.2C87.3285 28.2 86.8152 28.1733 86.3219 28.12C85.8419 28.0667 85.4019 27.9933 85.0019 27.9C84.6019 27.7933 84.2485 27.6667 83.9419 27.52V25.8C84.4219 26.0133 85.0152 26.2067 85.7219 26.38C86.4419 26.5533 87.1819 26.64 87.9419 26.64C88.6485 26.64 89.2419 26.5467 89.7219 26.36C90.2019 26.1733 90.5619 25.9067 90.8019 25.56C91.0419 25.2133 91.1619 24.8067 91.1619 24.34C91.1619 23.8733 91.0619 23.48 90.8619 23.16C90.6619 22.84 90.3152 22.5467 89.8219 22.28C89.3419 22 88.6685 21.7067 87.8019 21.4C87.1885 21.1733 86.6485 20.9333 86.1819 20.68C85.7285 20.4133 85.3485 20.1133 85.0419 19.78C84.7352 19.4467 84.5019 19.0667 84.3419 18.64C84.1952 18.2133 84.1219 17.72 84.1219 17.16C84.1219 16.4 84.3152 15.7533 84.7019 15.22C85.0885 14.6733 85.6219 14.2533 86.3019 13.96C86.9952 13.6667 87.7885 13.52 88.6819 13.52C89.4685 13.52 90.1885 13.5933 90.8419 13.74C91.4952 13.8867 92.0885 14.08 92.6219 14.32L92.0619 15.86C91.5685 15.6467 91.0285 15.4667 90.4419 15.32C89.8685 15.1733 89.2685 15.1 88.6419 15.1C88.0419 15.1 87.5419 15.1867 87.1419 15.36C86.7419 15.5333 86.4419 15.78 86.2419 16.1C86.0419 16.4067 85.9419 16.7667 85.9419 17.18C85.9419 17.66 86.0419 18.06 86.2419 18.38C86.4419 18.7 86.7685 18.9867 87.2219 19.24C87.6752 19.4933 88.2885 19.7667 89.0619 20.06C89.9019 20.3667 90.6085 20.7 91.1819 21.06C91.7685 21.4067 92.2085 21.8267 92.5019 22.32C92.8085 22.8133 92.9619 23.4333 92.9619 24.18ZM100.358 28H98.5584V15.3H94.0984V13.72H104.798V15.3H100.358V28ZM114.932 28H106.952V13.72H114.932V15.3H108.752V19.76H114.572V21.32H108.752V26.42H114.932V28ZM122.005 13.72C123.192 13.72 124.165 13.8733 124.925 14.18C125.698 14.4733 126.272 14.92 126.645 15.52C127.018 16.12 127.205 16.8733 127.205 17.78C127.205 18.54 127.065 19.1733 126.785 19.68C126.505 20.1867 126.145 20.5933 125.705 20.9C125.278 21.1933 124.825 21.4267 124.345 21.6L128.265 28H126.165L122.705 22.1H119.865V28H118.065V13.72H122.005ZM121.905 15.28H119.865V20.58H122.005C122.778 20.58 123.412 20.48 123.905 20.28C124.398 20.0667 124.758 19.76 124.985 19.36C125.225 18.96 125.345 18.46 125.345 17.86C125.345 17.2333 125.218 16.7333 124.965 16.36C124.725 15.9867 124.352 15.7133 123.845 15.54C123.338 15.3667 122.692 15.28 121.905 15.28ZM135.026 28H133.226V15.3H128.766V13.72H139.466V15.3H135.026V28ZM149.6 28H141.62V13.72H149.6V15.3H143.42V19.76H149.24V21.32H143.42V26.42H149.6V28ZM161.693 28L159.973 23.58H154.313L152.613 28H150.793L156.373 13.66H157.993L163.553 28H161.693ZM157.833 17.66C157.793 17.5533 157.726 17.36 157.633 17.08C157.54 16.8 157.446 16.5133 157.353 16.22C157.273 15.9133 157.206 15.68 157.153 15.52C157.086 15.7867 157.013 16.06 156.933 16.34C156.866 16.6067 156.793 16.8533 156.713 17.08C156.646 17.3067 156.586 17.5 156.533 17.66L154.913 21.98H159.433L157.833 17.66Z"/>
</mask>
<path d="M66.24 28L61.54 15.48H61.46C61.4867 15.7467 61.5067 16.0867 61.52 16.5C61.5467 16.9133 61.5667 17.3667 61.58 17.86C61.5933 18.34 61.6 18.8333 61.6 19.34V28H59.94V13.72H62.6L67 25.42H67.08L71.56 13.72H74.2V28H72.42V19.22C72.42 18.7533 72.4267 18.2933 72.44 17.84C72.4533 17.3733 72.4733 16.94 72.5 16.54C72.5267 16.1267 72.5467 15.78 72.56 15.5H72.48L67.72 28H66.24ZM82.1045 28H76.9445V26.96L78.6245 26.58V15.16L76.9445 14.76V13.72H82.1045V14.76L80.4245 15.16V26.58L82.1045 26.96V28ZM92.9619 24.18C92.9619 25.0333 92.7552 25.76 92.3419 26.36C91.9285 26.9467 91.3352 27.4 90.5619 27.72C89.8019 28.04 88.9019 28.2 87.8619 28.2C87.3285 28.2 86.8152 28.1733 86.3219 28.12C85.8419 28.0667 85.4019 27.9933 85.0019 27.9C84.6019 27.7933 84.2485 27.6667 83.9419 27.52V25.8C84.4219 26.0133 85.0152 26.2067 85.7219 26.38C86.4419 26.5533 87.1819 26.64 87.9419 26.64C88.6485 26.64 89.2419 26.5467 89.7219 26.36C90.2019 26.1733 90.5619 25.9067 90.8019 25.56C91.0419 25.2133 91.1619 24.8067 91.1619 24.34C91.1619 23.8733 91.0619 23.48 90.8619 23.16C90.6619 22.84 90.3152 22.5467 89.8219 22.28C89.3419 22 88.6685 21.7067 87.8019 21.4C87.1885 21.1733 86.6485 20.9333 86.1819 20.68C85.7285 20.4133 85.3485 20.1133 85.0419 19.78C84.7352 19.4467 84.5019 19.0667 84.3419 18.64C84.1952 18.2133 84.1219 17.72 84.1219 17.16C84.1219 16.4 84.3152 15.7533 84.7019 15.22C85.0885 14.6733 85.6219 14.2533 86.3019 13.96C86.9952 13.6667 87.7885 13.52 88.6819 13.52C89.4685 13.52 90.1885 13.5933 90.8419 13.74C91.4952 13.8867 92.0885 14.08 92.6219 14.32L92.0619 15.86C91.5685 15.6467 91.0285 15.4667 90.4419 15.32C89.8685 15.1733 89.2685 15.1 88.6419 15.1C88.0419 15.1 87.5419 15.1867 87.1419 15.36C86.7419 15.5333 86.4419 15.78 86.2419 16.1C86.0419 16.4067 85.9419 16.7667 85.9419 17.18C85.9419 17.66 86.0419 18.06 86.2419 18.38C86.4419 18.7 86.7685 18.9867 87.2219 19.24C87.6752 19.4933 88.2885 19.7667 89.0619 20.06C89.9019 20.3667 90.6085 20.7 91.1819 21.06C91.7685 21.4067 92.2085 21.8267 92.5019 22.32C92.8085 22.8133 92.9619 23.4333 92.9619 24.18ZM100.358 28H98.5584V15.3H94.0984V13.72H104.798V15.3H100.358V28ZM114.932 28H106.952V13.72H114.932V15.3H108.752V19.76H114.572V21.32H108.752V26.42H114.932V28ZM122.005 13.72C123.192 13.72 124.165 13.8733 124.925 14.18C125.698 14.4733 126.272 14.92 126.645 15.52C127.018 16.12 127.205 16.8733 127.205 17.78C127.205 18.54 127.065 19.1733 126.785 19.68C126.505 20.1867 126.145 20.5933 125.705 20.9C125.278 21.1933 124.825 21.4267 124.345 21.6L128.265 28H126.165L122.705 22.1H119.865V28H118.065V13.72H122.005ZM121.905 15.28H119.865V20.58H122.005C122.778 20.58 123.412 20.48 123.905 20.28C124.398 20.0667 124.758 19.76 124.985 19.36C125.225 18.96 125.345 18.46 125.345 17.86C125.345 17.2333 125.218 16.7333 124.965 16.36C124.725 15.9867 124.352 15.7133 123.845 15.54C123.338 15.3667 122.692 15.28 121.905 15.28ZM135.026 28H133.226V15.3H128.766V13.72H139.466V15.3H135.026V28ZM149.6 28H141.62V13.72H149.6V15.3H143.42V19.76H149.24V21.32H143.42V26.42H149.6V28ZM161.693 28L159.973 23.58H154.313L152.613 28H150.793L156.373 13.66H157.993L163.553 28H161.693ZM157.833 17.66C157.793 17.5533 157.726 17.36 157.633 17.08C157.54 16.8 157.446 16.5133 157.353 16.22C157.273 15.9133 157.206 15.68 157.153 15.52C157.086 15.7867 157.013 16.06 156.933 16.34C156.866 16.6067 156.793 16.8533 156.713 17.08C156.646 17.3067 156.586 17.5 156.533 17.66L154.913 21.98H159.433L157.833 17.66Z" fill="black"/>
<path d="M66.24 28L66.0059 28.0879L66.0668 28.25H66.24V28ZM61.54 15.48L61.7741 15.3921L61.7132 15.23H61.54V15.48ZM61.46 15.48V15.23H61.1838L61.2112 15.5049L61.46 15.48ZM61.52 16.5L61.27 16.5081L61.2705 16.5161L61.52 16.5ZM61.58 17.86L61.3301 17.8668L61.3301 17.8669L61.58 17.86ZM61.6 28V28.25H61.85V28H61.6ZM59.94 28H59.69V28.25H59.94V28ZM59.94 13.72V13.47H59.69V13.72H59.94ZM62.6 13.72L62.834 13.632L62.7731 13.47H62.6V13.72ZM67 25.42L66.766 25.508L66.8269 25.67H67V25.42ZM67.08 25.42V25.67H67.252L67.3135 25.5094L67.08 25.42ZM71.56 13.72V13.47H71.388L71.3265 13.6306L71.56 13.72ZM74.2 13.72H74.45V13.47H74.2V13.72ZM74.2 28V28.25H74.45V28H74.2ZM72.42 28H72.17V28.25H72.42V28ZM72.44 17.84L72.6899 17.8473L72.6899 17.8471L72.44 17.84ZM72.5 16.54L72.7494 16.5566L72.7495 16.5561L72.5 16.54ZM72.56 15.5L72.8097 15.5119L72.8222 15.25H72.56V15.5ZM72.48 15.5V15.25H72.3077L72.2464 15.411L72.48 15.5ZM67.72 28V28.25H67.8923L67.9536 28.089L67.72 28ZM66.4741 27.9121L61.7741 15.3921L61.3059 15.5679L66.0059 28.0879L66.4741 27.9121ZM61.54 15.23H61.46V15.73H61.54V15.23ZM61.2112 15.5049C61.2371 15.7638 61.2569 16.0977 61.2701 16.5081L61.7699 16.4919C61.7564 16.0756 61.7362 15.7295 61.7088 15.4551L61.2112 15.5049ZM61.2705 16.5161C61.297 16.9258 61.3168 17.376 61.3301 17.8668L61.8299 17.8532C61.8165 17.3574 61.7964 16.9009 61.7695 16.4839L61.2705 16.5161ZM61.3301 17.8669C61.3434 18.3445 61.35 18.8355 61.35 19.34H61.85C61.85 18.8311 61.8433 18.3355 61.8299 17.8531L61.3301 17.8669ZM61.35 19.34V28H61.85V19.34H61.35ZM61.6 27.75H59.94V28.25H61.6V27.75ZM60.19 28V13.72H59.69V28H60.19ZM59.94 13.97H62.6V13.47H59.94V13.97ZM62.366 13.808L66.766 25.508L67.234 25.332L62.834 13.632L62.366 13.808ZM67 25.67H67.08V25.17H67V25.67ZM67.3135 25.5094L71.7935 13.8094L71.3265 13.6306L66.8465 25.3306L67.3135 25.5094ZM71.56 13.97H74.2V13.47H71.56V13.97ZM73.95 13.72V28H74.45V13.72H73.95ZM74.2 27.75H72.42V28.25H74.2V27.75ZM72.67 28V19.22H72.17V28H72.67ZM72.67 19.22C72.67 18.7557 72.6766 18.2982 72.6899 17.8473L72.1901 17.8326C72.1767 18.2885 72.17 18.751 72.17 19.22H72.67ZM72.6899 17.8471C72.7032 17.3831 72.723 16.953 72.7494 16.5566L72.2506 16.5234C72.2236 16.927 72.2035 17.3635 72.1901 17.8329L72.6899 17.8471ZM72.7495 16.5561C72.7762 16.142 72.7963 15.7938 72.8097 15.5119L72.3103 15.4881C72.297 15.7662 72.2771 16.1114 72.2505 16.5239L72.7495 16.5561ZM72.56 15.25H72.48V15.75H72.56V15.25ZM72.2464 15.411L67.4864 27.911L67.9536 28.089L72.7136 15.589L72.2464 15.411ZM67.72 27.75H66.24V28.25H67.72V27.75ZM82.1045 28V28.25H82.3545V28H82.1045ZM76.9445 28H76.6945V28.25H76.9445V28ZM76.9445 26.96L76.8894 26.7162L76.6945 26.7602V26.96H76.9445ZM78.6245 26.58L78.6797 26.8238L78.8745 26.7798V26.58H78.6245ZM78.6245 15.16H78.8745V14.9625L78.6824 14.9168L78.6245 15.16ZM76.9445 14.76H76.6945V14.9575L76.8866 15.0032L76.9445 14.76ZM76.9445 13.72V13.47H76.6945V13.72H76.9445ZM82.1045 13.72H82.3545V13.47H82.1045V13.72ZM82.1045 14.76L82.1624 15.0032L82.3545 14.9575V14.76H82.1045ZM80.4245 15.16L80.3666 14.9168L80.1745 14.9625V15.16H80.4245ZM80.4245 26.58H80.1745V26.7798L80.3694 26.8238L80.4245 26.58ZM82.1045 26.96H82.3545V26.7602L82.1597 26.7162L82.1045 26.96ZM82.1045 27.75H76.9445V28.25H82.1045V27.75ZM77.1945 28V26.96H76.6945V28H77.1945ZM76.9997 27.2038L78.6797 26.8238L78.5694 26.3362L76.8894 26.7162L76.9997 27.2038ZM78.8745 26.58V15.16H78.3745V26.58H78.8745ZM78.6824 14.9168L77.0024 14.5168L76.8866 15.0032L78.5666 15.4032L78.6824 14.9168ZM77.1945 14.76V13.72H76.6945V14.76H77.1945ZM76.9445 13.97H82.1045V13.47H76.9445V13.97ZM81.8545 13.72V14.76H82.3545V13.72H81.8545ZM82.0466 14.5168L80.3666 14.9168L80.4824 15.4032L82.1624 15.0032L82.0466 14.5168ZM80.1745 15.16V26.58H80.6745V15.16H80.1745ZM80.3694 26.8238L82.0494 27.2038L82.1597 26.7162L80.4797 26.3362L80.3694 26.8238ZM81.8545 26.96V28H82.3545V26.96H81.8545ZM92.3419 26.36L92.5463 26.504L92.5478 26.5018L92.3419 26.36ZM90.5619 27.72L90.4663 27.489L90.4649 27.4896L90.5619 27.72ZM86.3219 28.12L86.2943 28.3685L86.295 28.3686L86.3219 28.12ZM85.0019 27.9L84.9374 28.1417L84.9451 28.1435L85.0019 27.9ZM83.9419 27.52H83.6919V27.6776L83.834 27.7455L83.9419 27.52ZM83.9419 25.8L84.0434 25.5715L83.6919 25.4153V25.8H83.9419ZM85.7219 26.38L85.6623 26.6228L85.6634 26.6231L85.7219 26.38ZM89.7219 26.36L89.6313 26.127L89.6313 26.127L89.7219 26.36ZM90.8019 25.56L90.5963 25.4177L90.5963 25.4177L90.8019 25.56ZM90.8619 23.16L90.6499 23.2925L90.6499 23.2925L90.8619 23.16ZM89.8219 22.28L89.6958 22.4961L89.703 22.4999L89.8219 22.28ZM87.8019 21.4L87.7152 21.6345L87.7185 21.6357L87.8019 21.4ZM86.1819 20.68L86.055 20.8956L86.0626 20.8997L86.1819 20.68ZM84.3419 18.64L84.1054 18.7213L84.1078 18.7278L84.3419 18.64ZM84.7019 15.22L84.9043 15.3668L84.906 15.3644L84.7019 15.22ZM86.3019 13.96L86.2045 13.7298L86.2029 13.7304L86.3019 13.96ZM90.8419 13.74L90.8966 13.4961L90.8966 13.4961L90.8419 13.74ZM92.6219 14.32L92.8568 14.4054L92.9362 14.1873L92.7245 14.092L92.6219 14.32ZM92.0619 15.86L91.9626 16.0895L92.2062 16.1948L92.2968 15.9454L92.0619 15.86ZM90.4419 15.32L90.3799 15.5622L90.3812 15.5625L90.4419 15.32ZM86.2419 16.1L86.4513 16.2366L86.4539 16.2325L86.2419 16.1ZM86.2419 18.38L86.4539 18.2475L86.4539 18.2475L86.2419 18.38ZM87.2219 19.24L87.0999 19.4582L87.0999 19.4582L87.2219 19.24ZM89.0619 20.06L88.9732 20.2938L88.9761 20.2948L89.0619 20.06ZM91.1819 21.06L91.0489 21.2718L91.0547 21.2752L91.1819 21.06ZM92.5019 22.32L92.2869 22.4478L92.2896 22.452L92.5019 22.32ZM92.7119 24.18C92.7119 24.9916 92.5159 25.6667 92.136 26.2182L92.5478 26.5018C92.9945 25.8533 93.2119 25.0751 93.2119 24.18H92.7119ZM92.1375 26.216C91.7557 26.7579 91.2033 27.184 90.4663 27.489L90.6575 27.951C91.4672 27.616 92.1014 27.1355 92.5462 26.504L92.1375 26.216ZM90.4649 27.4896C89.7425 27.7938 88.8769 27.95 87.8619 27.95V28.45C88.9268 28.45 89.8613 28.2862 90.6589 27.9504L90.4649 27.4896ZM87.8619 27.95C87.3369 27.95 86.8325 27.9237 86.3487 27.8714L86.295 28.3686C86.7979 28.4229 87.3202 28.45 87.8619 28.45V27.95ZM86.3495 27.8715C85.8777 27.8191 85.4476 27.7473 85.0587 27.6565L84.9451 28.1435C85.3562 28.2394 85.8061 28.3142 86.2943 28.3685L86.3495 27.8715ZM85.0663 27.6584C84.6781 27.5549 84.3398 27.4332 84.0497 27.2945L83.834 27.7455C84.1573 27.9001 84.5256 28.0317 84.9375 28.1416L85.0663 27.6584ZM84.1919 27.52V25.8H83.6919V27.52H84.1919ZM83.8403 26.0285C84.3379 26.2496 84.9463 26.4472 85.6623 26.6228L85.7814 26.1372C85.0841 25.9662 84.5058 25.7771 84.0434 25.5715L83.8403 26.0285ZM85.6634 26.6231C86.403 26.8011 87.1627 26.89 87.9419 26.89V26.39C87.2011 26.39 86.4807 26.3055 85.7804 26.1369L85.6634 26.6231ZM87.9419 26.89C88.6688 26.89 89.295 26.7942 89.8125 26.593L89.6313 26.127C89.1887 26.2991 88.6283 26.39 87.9419 26.39V26.89ZM89.8125 26.593C90.3286 26.3923 90.7333 26.0983 91.0074 25.7023L90.5963 25.4177C90.3905 25.715 90.0752 25.9544 89.6313 26.127L89.8125 26.593ZM91.0074 25.7023C91.2794 25.3094 91.4119 24.8518 91.4119 24.34H90.9119C90.9119 24.7615 90.8043 25.1173 90.5963 25.4177L91.0074 25.7023ZM91.4119 24.34C91.4119 23.8376 91.304 23.3957 91.0739 23.0275L90.6499 23.2925C90.8198 23.5643 90.9119 23.9091 90.9119 24.34H91.4119ZM91.0739 23.0275C90.8424 22.6572 90.455 22.338 89.9408 22.0601L89.703 22.4999C90.1754 22.7553 90.4813 23.0228 90.6499 23.2925L91.0739 23.0275ZM89.9478 22.0641C89.4484 21.7727 88.7585 21.4733 87.8853 21.1643L87.7185 21.6357C88.5786 21.94 89.2353 22.2273 89.6959 22.4959L89.9478 22.0641ZM87.8885 21.1655C87.284 20.9421 86.7552 20.7068 86.3011 20.4603L86.0626 20.8997C86.5418 21.1599 87.0931 21.4046 87.7152 21.6345L87.8885 21.1655ZM86.3086 20.4645C85.8732 20.2084 85.5134 19.9233 85.2259 19.6107L84.8579 19.9493C85.1837 20.3034 85.5839 20.6183 86.0551 20.8955L86.3086 20.4645ZM85.2259 19.6107C84.9411 19.3012 84.7247 18.9489 84.576 18.5522L84.1078 18.7278C84.279 19.1844 84.5293 19.5921 84.8579 19.9493L85.2259 19.6107ZM84.5783 18.5587C84.4425 18.1637 84.3719 17.6987 84.3719 17.16H83.8719C83.8719 17.7413 83.9479 18.263 84.1055 18.7213L84.5783 18.5587ZM84.3719 17.16C84.3719 16.4443 84.5531 15.8511 84.9043 15.3667L84.4995 15.0733C84.0773 15.6556 83.8719 16.3557 83.8719 17.16H84.3719ZM84.906 15.3644C85.2634 14.8591 85.7585 14.4667 86.4009 14.1896L86.2029 13.7304C85.4853 14.04 84.9137 14.4876 84.4978 15.0756L84.906 15.3644ZM86.3993 14.1902C87.0566 13.9121 87.8159 13.77 88.6819 13.77V13.27C87.7612 13.27 86.9338 13.4212 86.2045 13.7298L86.3993 14.1902ZM88.6819 13.77C89.4532 13.77 90.1546 13.8419 90.7871 13.9839L90.8966 13.4961C90.2225 13.3447 89.4839 13.27 88.6819 13.27V13.77ZM90.7871 13.9839C91.4263 14.1274 92.0033 14.3158 92.5193 14.548L92.7245 14.092C92.1737 13.8442 91.5641 13.6459 90.8966 13.4961L90.7871 13.9839ZM92.3869 14.2346L91.8269 15.7746L92.2968 15.9454L92.8568 14.4054L92.3869 14.2346ZM92.1611 15.6305C91.6538 15.4112 91.1008 15.227 90.5025 15.0775L90.3812 15.5625C90.9563 15.7063 91.4832 15.8822 91.9626 16.0895L92.1611 15.6305ZM90.5038 15.0778C89.9091 14.9257 89.2882 14.85 88.6419 14.85V15.35C89.2489 15.35 89.828 15.421 90.3799 15.5622L90.5038 15.0778ZM88.6419 14.85C88.0197 14.85 87.4833 14.9396 87.0425 15.1306L87.2413 15.5894C87.6005 15.4337 88.064 15.35 88.6419 15.35V14.85ZM87.0425 15.1306C86.6034 15.3209 86.2607 15.5981 86.0299 15.9675L86.4539 16.2325C86.623 15.9619 86.8803 15.7458 87.2413 15.5894L87.0425 15.1306ZM86.0325 15.9634C85.8027 16.3158 85.6919 16.7246 85.6919 17.18H86.1919C86.1919 16.8087 86.2811 16.4975 86.4513 16.2366L86.0325 15.9634ZM85.6919 17.18C85.6919 17.6942 85.7991 18.1433 86.0299 18.5125L86.4539 18.2475C86.2846 17.9767 86.1919 17.6258 86.1919 17.18H85.6919ZM86.0299 18.5125C86.259 18.8791 86.623 19.1917 87.0999 19.4582L87.3438 19.0218C86.9141 18.7816 86.6247 18.5209 86.4539 18.2475L86.0299 18.5125ZM87.0999 19.4582C87.5683 19.72 88.1943 19.9983 88.9732 20.2937L89.1505 19.8263C88.3828 19.535 87.7821 19.2667 87.3438 19.0218L87.0999 19.4582ZM88.9761 20.2948C89.8046 20.5973 90.4943 20.9235 91.0489 21.2717L91.3148 20.8483C90.7227 20.4765 89.9992 20.1361 89.1476 19.8252L88.9761 20.2948ZM91.0547 21.2752C91.612 21.6046 92.0188 21.9967 92.287 22.4478L92.7168 22.1922C92.3983 21.6567 91.9251 21.2088 91.3091 20.8448L91.0547 21.2752ZM92.2896 22.452C92.5655 22.8959 92.7119 23.4669 92.7119 24.18H93.2119C93.2119 23.3998 93.0516 22.7308 92.7142 22.188L92.2896 22.452ZM100.358 28V28.25H100.608V28H100.358ZM98.5584 28H98.3084V28.25H98.5584V28ZM98.5584 15.3H98.8084V15.05H98.5584V15.3ZM94.0984 15.3H93.8484V15.55H94.0984V15.3ZM94.0984 13.72V13.47H93.8484V13.72H94.0984ZM104.798 13.72H105.048V13.47H104.798V13.72ZM104.798 15.3V15.55H105.048V15.3H104.798ZM100.358 15.3V15.05H100.108V15.3H100.358ZM100.358 27.75H98.5584V28.25H100.358V27.75ZM98.8084 28V15.3H98.3084V28H98.8084ZM98.5584 15.05H94.0984V15.55H98.5584V15.05ZM94.3484 15.3V13.72H93.8484V15.3H94.3484ZM94.0984 13.97H104.798V13.47H94.0984V13.97ZM104.548 13.72V15.3H105.048V13.72H104.548ZM104.798 15.05H100.358V15.55H104.798V15.05ZM100.108 15.3V28H100.608V15.3H100.108ZM114.932 28V28.25H115.182V28H114.932ZM106.952 28H106.702V28.25H106.952V28ZM106.952 13.72V13.47H106.702V13.72H106.952ZM114.932 13.72H115.182V13.47H114.932V13.72ZM114.932 15.3V15.55H115.182V15.3H114.932ZM108.752 15.3V15.05H108.502V15.3H108.752ZM108.752 19.76H108.502V20.01H108.752V19.76ZM114.572 19.76H114.822V19.51H114.572V19.76ZM114.572 21.32V21.57H114.822V21.32H114.572ZM108.752 21.32V21.07H108.502V21.32H108.752ZM108.752 26.42H108.502V26.67H108.752V26.42ZM114.932 26.42H115.182V26.17H114.932V26.42ZM114.932 27.75H106.952V28.25H114.932V27.75ZM107.202 28V13.72H106.702V28H107.202ZM106.952 13.97H114.932V13.47H106.952V13.97ZM114.682 13.72V15.3H115.182V13.72H114.682ZM114.932 15.05H108.752V15.55H114.932V15.05ZM108.502 15.3V19.76H109.002V15.3H108.502ZM108.752 20.01H114.572V19.51H108.752V20.01ZM114.322 19.76V21.32H114.822V19.76H114.322ZM114.572 21.07H108.752V21.57H114.572V21.07ZM108.502 21.32V26.42H109.002V21.32H108.502ZM108.752 26.67H114.932V26.17H108.752V26.67ZM114.682 26.42V28H115.182V26.42H114.682ZM124.925 14.18L124.831 14.4119L124.836 14.4137L124.925 14.18ZM126.645 15.52L126.433 15.6521L126.433 15.6521L126.645 15.52ZM126.785 19.68L127.004 19.8009L127.004 19.8009L126.785 19.68ZM125.705 20.9L125.847 21.106L125.848 21.1051L125.705 20.9ZM124.345 21.6L124.26 21.3649L123.972 21.469L124.132 21.7306L124.345 21.6ZM128.265 28V28.25H128.711L128.478 27.8694L128.265 28ZM126.165 28L125.949 28.1265L126.022 28.25H126.165V28ZM122.705 22.1L122.921 21.9735L122.848 21.85H122.705V22.1ZM119.865 22.1V21.85H119.615V22.1H119.865ZM119.865 28V28.25H120.115V28H119.865ZM118.065 28H117.815V28.25H118.065V28ZM118.065 13.72V13.47H117.815V13.72H118.065ZM119.865 15.28V15.03H119.615V15.28H119.865ZM119.865 20.58H119.615V20.83H119.865V20.58ZM123.905 20.28L123.999 20.5117L124.004 20.5095L123.905 20.28ZM124.985 19.36L124.771 19.2313L124.767 19.2367L124.985 19.36ZM124.965 16.36L124.755 16.4952L124.758 16.5004L124.965 16.36ZM123.845 15.54L123.764 15.7765L123.764 15.7765L123.845 15.54ZM122.005 13.97C123.173 13.97 124.111 14.1213 124.831 14.4118L125.019 13.9482C124.219 13.6254 123.211 13.47 122.005 13.47V13.97ZM124.836 14.4137C125.568 14.6911 126.093 15.1062 126.433 15.6521L126.857 15.3879C126.45 14.7338 125.829 14.2556 125.014 13.9462L124.836 14.4137ZM126.433 15.6521C126.775 16.2027 126.955 16.907 126.955 17.78H127.455C127.455 16.8397 127.261 16.0373 126.857 15.3879L126.433 15.6521ZM126.955 17.78C126.955 18.5105 126.82 19.0992 126.566 19.5591L127.004 19.8009C127.31 19.2474 127.455 18.5695 127.455 17.78H126.955ZM126.566 19.5591C126.303 20.035 125.968 20.4118 125.562 20.6949L125.848 21.1051C126.322 20.7748 126.707 20.3384 127.004 19.8009L126.566 19.5591ZM125.563 20.694C125.154 20.9754 124.72 21.1989 124.26 21.3649L124.43 21.8351C124.93 21.6545 125.403 21.4113 125.847 21.106L125.563 20.694ZM124.132 21.7306L128.052 28.1306L128.478 27.8694L124.558 21.4694L124.132 21.7306ZM128.265 27.75H126.165V28.25H128.265V27.75ZM126.381 27.8735L122.921 21.9735L122.489 22.2265L125.949 28.1265L126.381 27.8735ZM122.705 21.85H119.865V22.35H122.705V21.85ZM119.615 22.1V28H120.115V22.1H119.615ZM119.865 27.75H118.065V28.25H119.865V27.75ZM118.315 28V13.72H117.815V28H118.315ZM118.065 13.97H122.005V13.47H118.065V13.97ZM121.905 15.03H119.865V15.53H121.905V15.03ZM119.615 15.28V20.58H120.115V15.28H119.615ZM119.865 20.83H122.005V20.33H119.865V20.83ZM122.005 20.83C122.797 20.83 123.465 20.7279 123.999 20.5117L123.811 20.0483C123.358 20.2321 122.759 20.33 122.005 20.33V20.83ZM124.004 20.5095C124.539 20.2783 124.945 19.9383 125.203 19.4833L124.767 19.2367C124.572 19.5817 124.258 19.855 123.806 20.0505L124.004 20.5095ZM125.199 19.4886C125.468 19.0401 125.595 18.4926 125.595 17.86H125.095C125.095 18.4274 124.982 18.8799 124.771 19.2314L125.199 19.4886ZM125.595 17.86C125.595 17.2021 125.462 16.6476 125.172 16.2196L124.758 16.5004C124.974 16.819 125.095 17.2645 125.095 17.86H125.595ZM125.175 16.2248C124.899 15.7949 124.475 15.4911 123.926 15.3035L123.764 15.7765C124.229 15.9355 124.551 16.1785 124.755 16.4952L125.175 16.2248ZM123.926 15.3035C123.384 15.1181 122.708 15.03 121.905 15.03V15.53C122.676 15.53 123.293 15.6152 123.764 15.7765L123.926 15.3035ZM135.026 28V28.25H135.276V28H135.026ZM133.226 28H132.976V28.25H133.226V28ZM133.226 15.3H133.476V15.05H133.226V15.3ZM128.766 15.3H128.516V15.55H128.766V15.3ZM128.766 13.72V13.47H128.516V13.72H128.766ZM139.466 13.72H139.716V13.47H139.466V13.72ZM139.466 15.3V15.55H139.716V15.3H139.466ZM135.026 15.3V15.05H134.776V15.3H135.026ZM135.026 27.75H133.226V28.25H135.026V27.75ZM133.476 28V15.3H132.976V28H133.476ZM133.226 15.05H128.766V15.55H133.226V15.05ZM129.016 15.3V13.72H128.516V15.3H129.016ZM128.766 13.97H139.466V13.47H128.766V13.97ZM139.216 13.72V15.3H139.716V13.72H139.216ZM139.466 15.05H135.026V15.55H139.466V15.05ZM134.776 15.3V28H135.276V15.3H134.776ZM149.6 28V28.25H149.85V28H149.6ZM141.62 28H141.37V28.25H141.62V28ZM141.62 13.72V13.47H141.37V13.72H141.62ZM149.6 13.72H149.85V13.47H149.6V13.72ZM149.6 15.3V15.55H149.85V15.3H149.6ZM143.42 15.3V15.05H143.17V15.3H143.42ZM143.42 19.76H143.17V20.01H143.42V19.76ZM149.24 19.76H149.49V19.51H149.24V19.76ZM149.24 21.32V21.57H149.49V21.32H149.24ZM143.42 21.32V21.07H143.17V21.32H143.42ZM143.42 26.42H143.17V26.67H143.42V26.42ZM149.6 26.42H149.85V26.17H149.6V26.42ZM149.6 27.75H141.62V28.25H149.6V27.75ZM141.87 28V13.72H141.37V28H141.87ZM141.62 13.97H149.6V13.47H141.62V13.97ZM149.35 13.72V15.3H149.85V13.72H149.35ZM149.6 15.05H143.42V15.55H149.6V15.05ZM143.17 15.3V19.76H143.67V15.3H143.17ZM143.42 20.01H149.24V19.51H143.42V20.01ZM148.99 19.76V21.32H149.49V19.76H148.99ZM149.24 21.07H143.42V21.57H149.24V21.07ZM143.17 21.32V26.42H143.67V21.32H143.17ZM143.42 26.67H149.6V26.17H143.42V26.67ZM149.35 26.42V28H149.85V26.42H149.35ZM161.693 28L161.46 28.0907L161.522 28.25H161.693V28ZM159.973 23.58L160.206 23.4893L160.144 23.33H159.973V23.58ZM154.313 23.58V23.33H154.141L154.08 23.4903L154.313 23.58ZM152.613 28V28.25H152.785L152.846 28.0897L152.613 28ZM150.793 28L150.56 27.9093L150.427 28.25H150.793V28ZM156.373 13.66V13.41H156.202L156.14 13.5693L156.373 13.66ZM157.993 13.66L158.226 13.5696L158.164 13.41H157.993V13.66ZM163.553 28V28.25H163.918L163.786 27.9096L163.553 28ZM157.833 17.66L158.067 17.5732L158.067 17.5722L157.833 17.66ZM157.633 17.08L157.396 17.1591L157.396 17.1591L157.633 17.08ZM157.353 16.22L157.111 16.2832L157.115 16.2958L157.353 16.22ZM157.153 15.52L157.39 15.4409L157.119 14.6265L156.91 15.4594L157.153 15.52ZM156.933 16.34L156.692 16.2713L156.69 16.2794L156.933 16.34ZM156.713 17.08L156.477 16.9967L156.473 17.0095L156.713 17.08ZM156.533 17.66L156.767 17.7478L156.77 17.7391L156.533 17.66ZM154.913 21.98L154.679 21.8922L154.552 22.23H154.913V21.98ZM159.433 21.98V22.23H159.792L159.667 21.8932L159.433 21.98ZM161.926 27.9093L160.206 23.4893L159.74 23.6707L161.46 28.0907L161.926 27.9093ZM159.973 23.33H154.313V23.83H159.973V23.33ZM154.08 23.4903L152.38 27.9103L152.846 28.0897L154.546 23.6697L154.08 23.4903ZM152.613 27.75H150.793V28.25H152.613V27.75ZM151.026 28.0907L156.606 13.7507L156.14 13.5693L150.56 27.9093L151.026 28.0907ZM156.373 13.91H157.993V13.41H156.373V13.91ZM157.76 13.7504L163.32 28.0904L163.786 27.9096L158.226 13.5696L157.76 13.7504ZM163.553 27.75H161.693V28.25H163.553V27.75ZM158.067 17.5722C158.029 17.4704 157.964 17.2812 157.87 17.0009L157.396 17.1591C157.489 17.4388 157.557 17.6362 157.599 17.7478L158.067 17.5722ZM157.87 17.0009C157.777 16.7221 157.684 16.4365 157.591 16.1442L157.115 16.2958C157.208 16.5902 157.302 16.8779 157.396 17.1591L157.87 17.0009ZM157.595 16.1569C157.514 15.8486 157.446 15.6089 157.39 15.4409L156.916 15.5991C156.966 15.7511 157.031 15.978 157.111 16.2831L157.595 16.1569ZM156.91 15.4594C156.844 15.7232 156.772 15.9938 156.693 16.2713L157.173 16.4087C157.254 16.1262 157.328 15.8501 157.396 15.5806L156.91 15.4594ZM156.69 16.2794C156.625 16.5395 156.554 16.7785 156.477 16.9968L156.949 17.1632C157.032 16.9282 157.107 16.6739 157.176 16.4006L156.69 16.2794ZM156.473 17.0095C156.407 17.2343 156.348 17.4246 156.296 17.5809L156.77 17.7391C156.825 17.5754 156.886 17.379 156.953 17.1505L156.473 17.0095ZM156.299 17.5722L154.679 21.8922L155.147 22.0678L156.767 17.7478L156.299 17.5722ZM154.913 22.23H159.433V21.73H154.913V22.23ZM159.667 21.8932L158.067 17.5732L157.599 17.7468L159.199 22.0668L159.667 21.8932Z" fill="black" mask="url(#path-2-outside-1_66_9)"/>
<path d="M67.488 40L64.43 32.531H64.408C64.4153 32.6483 64.419 32.7583 64.419 32.861C64.419 32.9563 64.419 33.0517 64.419 33.147C64.419 33.235 64.419 33.334 64.419 33.444V40H64.133V32.146H64.595L67.587 39.472H67.62L70.623 32.146H71.063V40H70.777V33.378C70.777 33.3047 70.777 33.2277 70.777 33.147C70.777 33.059 70.777 32.9673 70.777 32.872C70.7843 32.7693 70.788 32.6593 70.788 32.542H70.766L67.708 40H67.488ZM75.1101 34.093C75.7114 34.093 76.1624 34.258 76.4631 34.588C76.7637 34.9107 76.9141 35.4313 76.9141 36.15V40H76.6721L76.6281 38.867H76.6061C76.5034 39.087 76.3604 39.2923 76.1771 39.483C76.0011 39.6737 75.7737 39.8277 75.4951 39.945C75.2237 40.055 74.8901 40.11 74.4941 40.11C74.1054 40.11 73.7791 40.0477 73.5151 39.923C73.2584 39.791 73.0641 39.6113 72.9321 39.384C72.8001 39.1567 72.7341 38.889 72.7341 38.581C72.7341 38.0017 72.9761 37.569 73.4601 37.283C73.9514 36.9897 74.6297 36.8173 75.4951 36.766L76.6281 36.7V36.227C76.6281 35.567 76.5034 35.094 76.2541 34.808C76.0047 34.5147 75.6234 34.368 75.1101 34.368C74.8167 34.368 74.5307 34.401 74.2521 34.467C73.9807 34.533 73.6874 34.6467 73.3721 34.808L73.2731 34.522C73.5664 34.39 73.8634 34.2873 74.1641 34.214C74.4721 34.1333 74.7874 34.093 75.1101 34.093ZM75.5171 37.03C74.7691 37.0667 74.1677 37.206 73.7131 37.448C73.2657 37.69 73.0421 38.0677 73.0421 38.581C73.0421 38.9697 73.1667 39.2777 73.4161 39.505C73.6654 39.725 74.0247 39.835 74.4941 39.835C75.2274 39.835 75.7627 39.626 76.1001 39.208C76.4447 38.79 76.6207 38.2473 76.6281 37.58V36.975L75.5171 37.03ZM79.1002 35.765C79.1002 36.117 79.1002 36.4507 79.1002 36.766C79.1002 37.0813 79.0966 37.415 79.0892 37.767H79.0782C79.1662 37.6717 79.2396 37.5873 79.2982 37.514C79.3642 37.4407 79.4302 37.3673 79.4962 37.294C79.5622 37.2207 79.6356 37.14 79.7162 37.052L82.2792 34.192H82.6532L80.3982 36.689L82.8732 40H82.5322L80.2002 36.887L79.1002 38.108V40H78.8142V31.64H79.1002V35.765ZM85.9763 34.082C86.475 34.082 86.8783 34.203 87.1863 34.445C87.4943 34.687 87.7217 35.0133 87.8683 35.424C88.015 35.8273 88.0883 36.2857 88.0883 36.799V37.074H83.7653C83.758 37.9613 83.9523 38.6433 84.3483 39.12C84.7443 39.5967 85.32 39.835 86.0753 39.835C86.4273 39.835 86.728 39.8093 86.9773 39.758C87.234 39.7067 87.531 39.604 87.8683 39.45V39.747C87.5897 39.8717 87.3073 39.9633 87.0213 40.022C86.7427 40.0807 86.4273 40.11 86.0753 40.11C85.4667 40.11 84.968 39.9817 84.5793 39.725C84.198 39.4683 83.9157 39.1163 83.7323 38.669C83.5563 38.2217 83.4683 37.7157 83.4683 37.151C83.4683 36.601 83.56 36.095 83.7433 35.633C83.9267 35.1637 84.2017 34.7897 84.5683 34.511C84.9423 34.225 85.4117 34.082 85.9763 34.082ZM85.9763 34.357C85.3603 34.357 84.8543 34.566 84.4583 34.984C84.0697 35.3947 83.8423 35.9997 83.7763 36.799H87.7913C87.7987 36.315 87.7363 35.8897 87.6043 35.523C87.4723 35.1563 87.2707 34.8703 86.9993 34.665C86.728 34.4597 86.387 34.357 85.9763 34.357ZM94.5212 34.093C95.1225 34.093 95.5735 34.258 95.8742 34.588C96.1749 34.9107 96.3252 35.4313 96.3252 36.15V40H96.0832L96.0392 38.867H96.0172C95.9145 39.087 95.7715 39.2923 95.5882 39.483C95.4122 39.6737 95.1849 39.8277 94.9062 39.945C94.6349 40.055 94.3012 40.11 93.9052 40.11C93.5165 40.11 93.1902 40.0477 92.9262 39.923C92.6695 39.791 92.4752 39.6113 92.3432 39.384C92.2112 39.1567 92.1452 38.889 92.1452 38.581C92.1452 38.0017 92.3872 37.569 92.8712 37.283C93.3625 36.9897 94.0409 36.8173 94.9062 36.766L96.0392 36.7V36.227C96.0392 35.567 95.9145 35.094 95.6652 34.808C95.4159 34.5147 95.0345 34.368 94.5212 34.368C94.2279 34.368 93.9419 34.401 93.6632 34.467C93.3919 34.533 93.0985 34.6467 92.7832 34.808L92.6842 34.522C92.9775 34.39 93.2745 34.2873 93.5752 34.214C93.8832 34.1333 94.1985 34.093 94.5212 34.093ZM94.9282 37.03C94.1802 37.0667 93.5789 37.206 93.1242 37.448C92.6769 37.69 92.4532 38.0677 92.4532 38.581C92.4532 38.9697 92.5779 39.2777 92.8272 39.505C93.0765 39.725 93.4359 39.835 93.9052 39.835C94.6385 39.835 95.1739 39.626 95.5112 39.208C95.8559 38.79 96.0319 38.2473 96.0392 37.58V36.975L94.9282 37.03ZM101.358 34.225C101.358 34.401 101.354 34.6173 101.347 34.874C101.347 35.1307 101.343 35.3507 101.336 35.534H101.358C101.482 35.1087 101.732 34.7603 102.106 34.489C102.487 34.2103 102.956 34.071 103.514 34.071C104.284 34.071 104.867 34.3277 105.263 34.841C105.659 35.347 105.857 36.0913 105.857 37.074C105.857 37.6313 105.769 38.141 105.593 38.603C105.424 39.0577 105.153 39.4243 104.779 39.703C104.412 39.9743 103.932 40.11 103.338 40.11C102.817 40.11 102.392 39.9927 102.062 39.758C101.739 39.516 101.512 39.2153 101.38 38.856H101.358L101.314 40H101.072V31.64H101.358V34.225ZM103.514 34.346C103.03 34.346 102.626 34.4597 102.304 34.687C101.988 34.907 101.75 35.2223 101.589 35.633C101.435 36.0437 101.358 36.535 101.358 37.107V37.217C101.358 38.0677 101.519 38.7167 101.842 39.164C102.172 39.6113 102.67 39.835 103.338 39.835C104.064 39.835 104.614 39.5967 104.988 39.12C105.369 38.636 105.56 37.954 105.56 37.074C105.56 36.172 105.387 35.4937 105.043 35.039C104.705 34.577 104.196 34.346 103.514 34.346ZM109.663 34.082C110.162 34.082 110.565 34.203 110.873 34.445C111.181 34.687 111.408 35.0133 111.555 35.424C111.702 35.8273 111.775 36.2857 111.775 36.799V37.074H107.452C107.445 37.9613 107.639 38.6433 108.035 39.12C108.431 39.5967 109.007 39.835 109.762 39.835C110.114 39.835 110.415 39.8093 110.664 39.758C110.921 39.7067 111.218 39.604 111.555 39.45V39.747C111.276 39.8717 110.994 39.9633 110.708 40.022C110.429 40.0807 110.114 40.11 109.762 40.11C109.153 40.11 108.655 39.9817 108.266 39.725C107.885 39.4683 107.602 39.1163 107.419 38.669C107.243 38.2217 107.155 37.7157 107.155 37.151C107.155 36.601 107.247 36.095 107.43 35.633C107.613 35.1637 107.888 34.7897 108.255 34.511C108.629 34.225 109.098 34.082 109.663 34.082ZM109.663 34.357C109.047 34.357 108.541 34.566 108.145 34.984C107.756 35.3947 107.529 35.9997 107.463 36.799H111.478C111.485 36.315 111.423 35.8897 111.291 35.523C111.159 35.1563 110.957 34.8703 110.686 34.665C110.415 34.4597 110.074 34.357 109.663 34.357ZM114.778 39.835C114.962 39.835 115.123 39.824 115.262 39.802C115.402 39.7727 115.53 39.736 115.647 39.692V39.967C115.53 40.0037 115.402 40.0367 115.262 40.066C115.13 40.0953 114.969 40.11 114.778 40.11C114.441 40.11 114.173 40.044 113.975 39.912C113.785 39.78 113.649 39.5893 113.568 39.34C113.488 39.0907 113.447 38.7973 113.447 38.46V34.467H112.556V34.225L113.436 34.192L113.502 32.751H113.733V34.192H115.625V34.467H113.733V38.427C113.733 38.8743 113.807 39.2227 113.953 39.472C114.1 39.714 114.375 39.835 114.778 39.835ZM118.291 39.835C118.474 39.835 118.636 39.824 118.775 39.802C118.914 39.7727 119.043 39.736 119.16 39.692V39.967C119.043 40.0037 118.914 40.0367 118.775 40.066C118.643 40.0953 118.482 40.11 118.291 40.11C117.954 40.11 117.686 40.044 117.488 39.912C117.297 39.78 117.162 39.5893 117.081 39.34C117 39.0907 116.96 38.7973 116.96 38.46V34.467H116.069V34.225L116.949 34.192L117.015 32.751H117.246V34.192H119.138V34.467H117.246V38.427C117.246 38.8743 117.319 39.2227 117.466 39.472C117.613 39.714 117.888 39.835 118.291 39.835ZM122.629 34.082C123.127 34.082 123.531 34.203 123.839 34.445C124.147 34.687 124.374 35.0133 124.521 35.424C124.667 35.8273 124.741 36.2857 124.741 36.799V37.074H120.418C120.41 37.9613 120.605 38.6433 121.001 39.12C121.397 39.5967 121.972 39.835 122.728 39.835C123.08 39.835 123.38 39.8093 123.63 39.758C123.886 39.7067 124.183 39.604 124.521 39.45V39.747C124.242 39.8717 123.96 39.9633 123.674 40.022C123.395 40.0807 123.08 40.11 122.728 40.11C122.119 40.11 121.62 39.9817 121.232 39.725C120.85 39.4683 120.568 39.1163 120.385 38.669C120.209 38.2217 120.121 37.7157 120.121 37.151C120.121 36.601 120.212 36.095 120.396 35.633C120.579 35.1637 120.854 34.7897 121.221 34.511C121.595 34.225 122.064 34.082 122.629 34.082ZM122.629 34.357C122.013 34.357 121.507 34.566 121.111 34.984C120.722 35.3947 120.495 35.9997 120.429 36.799H124.444C124.451 36.315 124.389 35.8897 124.257 35.523C124.125 35.1563 123.923 34.8703 123.652 34.665C123.38 34.4597 123.039 34.357 122.629 34.357ZM128.47 34.104C128.646 34.104 128.804 34.115 128.943 34.137C129.09 34.159 129.229 34.1883 129.361 34.225L129.295 34.489C129.156 34.4523 129.024 34.4267 128.899 34.412C128.782 34.39 128.639 34.379 128.47 34.379C128.162 34.379 127.898 34.434 127.678 34.544C127.458 34.654 127.275 34.8117 127.128 35.017C126.981 35.2223 126.871 35.4717 126.798 35.765C126.732 36.051 126.699 36.3737 126.699 36.733V40H126.413V34.192H126.677L126.699 35.303H126.721C126.794 35.0757 126.908 34.874 127.062 34.698C127.216 34.5147 127.41 34.3717 127.645 34.269C127.887 34.159 128.162 34.104 128.47 34.104ZM136.575 35.732C136.545 35.6367 136.516 35.5487 136.487 35.468C136.465 35.38 136.439 35.2993 136.41 35.226C136.388 35.1453 136.362 35.061 136.333 34.973C136.311 34.885 136.285 34.7933 136.256 34.698H136.234C136.204 34.7933 136.175 34.885 136.146 34.973C136.124 35.061 136.098 35.149 136.069 35.237C136.047 35.3177 136.021 35.3983 135.992 35.479C135.97 35.5597 135.944 35.644 135.915 35.732L134.496 40.011H134.254L132.571 34.203H132.89L134.045 38.284C134.111 38.5113 134.162 38.6983 134.199 38.845C134.235 38.9843 134.268 39.109 134.298 39.219C134.327 39.3217 134.353 39.4317 134.375 39.549H134.397C134.419 39.461 134.441 39.3767 134.463 39.296C134.485 39.2153 134.507 39.131 134.529 39.043C134.558 38.9477 134.591 38.8413 134.628 38.724C134.672 38.5993 134.719 38.4527 134.771 38.284L136.146 34.203H136.377L137.686 38.273C137.744 38.4563 137.796 38.625 137.84 38.779C137.884 38.9257 137.924 39.0613 137.961 39.186C137.997 39.3107 138.03 39.4317 138.06 39.549H138.082C138.096 39.4317 138.115 39.318 138.137 39.208C138.166 39.0907 138.199 38.9587 138.236 38.812C138.28 38.6653 138.327 38.4893 138.379 38.284L139.468 34.203H139.754L138.203 40.011H137.961L136.575 35.732ZM145.59 37.096C145.59 37.5213 145.538 37.9173 145.436 38.284C145.34 38.6507 145.186 38.9697 144.974 39.241C144.768 39.5123 144.508 39.725 144.193 39.879C143.877 40.033 143.503 40.11 143.071 40.11C142.653 40.11 142.286 40.0367 141.971 39.89C141.663 39.736 141.402 39.5233 141.19 39.252C140.984 38.9807 140.83 38.6617 140.728 38.295C140.625 37.9283 140.574 37.5287 140.574 37.096C140.574 36.48 140.673 35.9483 140.871 35.501C141.076 35.0463 141.369 34.698 141.751 34.456C142.139 34.2067 142.601 34.082 143.137 34.082C143.723 34.082 144.196 34.2177 144.556 34.489C144.915 34.753 145.175 35.1123 145.337 35.567C145.505 36.0217 145.59 36.5313 145.59 37.096ZM140.871 37.096C140.871 37.6313 140.951 38.108 141.113 38.526C141.274 38.9367 141.516 39.2593 141.839 39.494C142.169 39.7213 142.579 39.835 143.071 39.835C143.584 39.835 144.002 39.7177 144.325 39.483C144.655 39.2483 144.897 38.9257 145.051 38.515C145.212 38.097 145.293 37.624 145.293 37.096C145.293 36.59 145.219 36.1317 145.073 35.721C144.933 35.303 144.706 34.973 144.391 34.731C144.075 34.4817 143.657 34.357 143.137 34.357C142.411 34.357 141.85 34.599 141.454 35.083C141.065 35.567 140.871 36.238 140.871 37.096ZM149.31 34.104C149.486 34.104 149.644 34.115 149.783 34.137C149.93 34.159 150.069 34.1883 150.201 34.225L150.135 34.489C149.996 34.4523 149.864 34.4267 149.739 34.412C149.622 34.39 149.479 34.379 149.31 34.379C149.002 34.379 148.738 34.434 148.518 34.544C148.298 34.654 148.115 34.8117 147.968 35.017C147.821 35.2223 147.711 35.4717 147.638 35.765C147.572 36.051 147.539 36.3737 147.539 36.733V40H147.253V34.192H147.517L147.539 35.303H147.561C147.634 35.0757 147.748 34.874 147.902 34.698C148.056 34.5147 148.25 34.3717 148.485 34.269C148.727 34.159 149.002 34.104 149.31 34.104ZM151.664 40H151.378V31.64H151.664V40ZM155.767 40.11C154.931 40.11 154.312 39.8607 153.908 39.362C153.505 38.8633 153.303 38.1447 153.303 37.206C153.303 36.2013 153.523 35.4313 153.963 34.896C154.403 34.3533 155.034 34.082 155.855 34.082C156.207 34.082 156.512 34.1443 156.768 34.269C157.032 34.3863 157.249 34.5477 157.417 34.753C157.593 34.9583 157.722 35.1893 157.802 35.446H157.824C157.817 35.1967 157.81 34.9547 157.802 34.72C157.802 34.4853 157.802 34.2543 157.802 34.027V31.64H158.088V40H157.846L157.824 38.757H157.802C157.714 38.999 157.582 39.2227 157.406 39.428C157.238 39.6333 157.018 39.7983 156.746 39.923C156.482 40.0477 156.156 40.11 155.767 40.11ZM155.767 39.835C156.501 39.835 157.021 39.5967 157.329 39.12C157.645 38.636 157.802 37.965 157.802 37.107V37.074C157.802 36.194 157.641 35.523 157.318 35.061C156.996 34.5917 156.508 34.357 155.855 34.357C155.129 34.357 154.572 34.5953 154.183 35.072C153.795 35.5413 153.6 36.2527 153.6 37.206C153.6 38.086 153.776 38.746 154.128 39.186C154.488 39.6187 155.034 39.835 155.767 39.835Z" fill="black"/>
</svg>
